<svg xmlns="http://www.w3.org/2000/svg" width="300" height="400" viewBox="0 0 300 400"><path d="M275.303 756.035q0 24.85-8.875 44.375-8.875 19.272-23.329 34.233-14.2 14.453-32.711 27.132t-39.304 24.597v57.054h-45.39v-77.34a3151 3151 0 0 0 35.5-20.54q19.273-11.157 31.444-22.568 14.708-13.186 22.821-27.132 8.115-14.2 8.115-36.008 0-28.654-19.525-42.6-19.272-14.2-49.955-14.2c-32.728 1.207-79.344 14.33-107.662 40.626h-2.536v-51.73c31.219-21.876 81.323-32.116 113.748-32.258q54.519 0 85.962 26.626 31.697 26.37 31.697 69.733m-100.162 288.821h-51.73v-53.504h51.73z" style="font-style:normal;font-weight:400;font-size:519.32067871px;line-height:125%;font-family:sans-serif;letter-spacing:0;word-spacing:0;fill:#d71e1e;fill-opacity:1;stroke:none;stroke-width:1px;stroke-linecap:butt;stroke-linejoin:miter;stroke-opacity:1" transform="translate(0 -652.362)"/></svg>