<svg width="180" height="220" viewBox="0 0 180 220" fill="none" xmlns="http://www.w3.org/2000/svg">
  <rect width="180" height="220" rx="28" fill="url(#bg)"/>
  <circle cx="36" cy="36" r="38" fill="white" opacity=".12"/>
  <circle cx="146" cy="184" r="50" fill="white" opacity=".14"/>
  <rect x="18" y="18" width="74" height="26" rx="13" fill="white" opacity=".2"/>
  <text x="28" y="37" fill="white" font-family="Microsoft YaHei, Arial" font-size="15" font-weight="900">摇骰子</text>
  <g transform="translate(35 70) rotate(-10 36 36)">
    <rect width="70" height="70" rx="18" fill="#FFF7D7"/>
    <circle cx="21" cy="21" r="6" fill="#15427D"/>
    <circle cx="35" cy="35" r="6" fill="#15427D"/>
    <circle cx="49" cy="49" r="6" fill="#15427D"/>
  </g>
  <g transform="translate(88 98) rotate(12 35 35)">
    <rect width="70" height="70" rx="18" fill="#FFE09A"/>
    <circle cx="22" cy="22" r="6" fill="#15427D"/>
    <circle cx="48" cy="22" r="6" fill="#15427D"/>
    <circle cx="22" cy="48" r="6" fill="#15427D"/>
    <circle cx="48" cy="48" r="6" fill="#15427D"/>
  </g>
  <path d="M46 168c18 13 53 18 88-2" stroke="white" stroke-width="7" stroke-linecap="round" opacity=".8"/>
  <text x="90" y="205" text-anchor="middle" fill="#FFF2BE" font-family="Microsoft YaHei, Arial" font-size="16" font-weight="900">门票 10 分</text>
  <defs>
    <linearGradient id="bg" x1="0" y1="0" x2="180" y2="220" gradientUnits="userSpaceOnUse">
      <stop stop-color="#0D63EF"/>
      <stop offset=".55" stop-color="#279BFF"/>
      <stop offset="1" stop-color="#FFD56A"/>
    </linearGradient>
  </defs>
</svg>
